<?xml version="1.0" standalone="no"?>
<!DOCTYPE svg PUBLIC "-//W3C//DTD SVG 20010904//EN"
 "http://www.w3.org/TR/2001/REC-SVG-20010904/DTD/svg10.dtd">
<svg version="1.0" xmlns="http://www.w3.org/2000/svg"
 width="280.000000pt" height="86.000000pt" viewBox="0 0 280.000000 86.000000"
 preserveAspectRatio="xMidYMid meet">

<g transform="translate(0.000000,86.000000) scale(0.100000,-0.100000)"
fill="#000000" stroke="none">
<path d="M526 624 c-4 -14 -4 -64 0 -110 8 -97 22 -114 100 -116 74 -1 87 20
92 142 l4 100 -26 0 -26 0 0 -89 c0 -98 -12 -124 -52 -114 -40 10 -48 31 -48
125 0 80 -2 88 -19 88 -12 0 -21 -9 -25 -26z"/>
<path d="M780 525 c0 -118 1 -125 20 -125 18 0 20 7 20 81 0 82 0 82 19 58 10
-13 33 -50 51 -81 25 -46 37 -58 56 -58 l24 0 0 125 c0 118 -1 125 -20 125
-17 0 -19 -8 -22 -87 l-3 -88 -19 35 c-44 81 -89 140 -107 140 -18 0 -19 -9
-19 -125z"/>
<path d="M1130 525 c0 -116 1 -125 19 -125 20 0 31 25 31 72 0 24 4 27 50 33
40 6 50 11 50 26 0 17 -6 19 -52 17 -53 -3 -53 -3 -53 27 0 30 0 30 63 33 109
5 54 40 -65 41 l-43 1 0 -125z"/>
<path d="M1374 617 c-34 -31 -37 -38 -38 -94 -1 -52 3 -65 23 -87 29 -31 81
-47 122 -39 45 9 89 65 89 114 0 86 -47 139 -125 139 -26 0 -45 -9 -71 -33z
m125 -28 c37 -40 30 -116 -14 -145 -70 -45 -139 70 -84 140 25 32 70 35 98 5z"/>
<path d="M1620 645 c0 0 -2 -44 -5 -99 -6 -115 0 -146 26 -146 16 0 19 8 19
56 0 47 3 55 16 50 9 -3 19 -6 24 -6 5 0 25 -22 45 -50 27 -36 43 -50 61 -50
l24 0 -19 38 c-11 21 -27 44 -35 52 -15 12 -14 14 4 27 29 20 39 52 28 85 -13
37 -38 43 -188 43z m141 -51 c22 -27 -1 -49 -52 -49 -45 0 -59 15 -45 51 8 20
80 19 97 -2z"/>
<path d="M1903 642 l-33 -3 0 -120 c0 -112 1 -119 20 -119 19 0 20 7 21 98 l1
97 25 -97 c23 -89 27 -98 49 -98 25 0 22 -5 57 130 l14 55 8 -57 c4 -32 4 -74
1 -93 -6 -32 -5 -35 16 -35 23 0 23 2 23 118 l0 117 -36 3 -37 3 -17 -71 c-9
-38 -21 -72 -25 -75 -6 -4 -38 91 -44 132 -3 17 -7 19 -43 15z"/>
<path d="M1037 633 c-4 -3 -7 -102 -7 -220 0 -183 2 -214 15 -220 9 -3 18 -3
22 0 6 7 12 417 5 435 -4 13 -24 16 -35 5z"/>
</g>
</svg>
